<mxfile host="app.diagrams.net">
  <diagram name="Modelo-ER">
    <mxGraphModel dx="2388" dy="1085" grid="1" gridSize="10" guides="1" tooltips="1" connect="1" arrows="1" fold="1" page="1" pageScale="1" pageWidth="1654" pageHeight="2336" background="none" math="0" shadow="0">
      <root>
        <mxCell id="0" />
        <mxCell id="1" parent="0" />
        
        <!-- Entidade Estoque -->
        <mxCell id="2" value="Estoque" style="swimlane;rounded=1;whiteSpace=wrap;html=1;fillColor=#f7f7f7" parent="1" vertex="1">
          <mxGeometry x="50" y="50" width="160" height="120" as="geometry" />
        </mxCell>
        <mxCell id="3" value="quantidadeEstoque: Int, dataEntrada: DateTime, dataSaida: DateTime" style="text;strokeColor=none;fillColor=none;align=center;verticalAlign=middle;whiteSpace=wrap;html=1;fontSize=12;" parent="2" vertex="1">
          <mxGeometry width="160" height="60" as="geometry" />
        </mxCell>

        <!-- Entidade Produto -->
        <mxCell id="4" value="Produto" style="swimlane;rounded=1;whiteSpace=wrap;html=1;fillColor=#f7f7f7" parent="1" vertex="1">
          <mxGeometry x="250" y="50" width="160" height="120" as="geometry" />
        </mxCell>
        <mxCell id="5" value="nome: String, valor: Float, codigo: String" style="text;strokeColor=none;fillColor=none;align=center;verticalAlign=middle;whiteSpace=wrap;html=1;fontSize=12;" parent="4" vertex="1">
          <mxGeometry width="160" height="60" as="geometry" />
        </mxCell>

        <!-- Entidade Cliente -->
        <mxCell id="6" value="Cliente" style="swimlane;rounded=1;whiteSpace=wrap;html=1;fillColor=#f7f7f7" parent="1" vertex="1">
          <mxGeometry x="50" y="200" width="160" height="120" as="geometry" />
        </mxCell>
        <mxCell id="7" value="historicoCompras: String, tipoCliente: String" style="text;strokeColor=none;fillColor=none;align=center;verticalAlign=middle;whiteSpace=wrap;html=1;fontSize=12;" parent="6" vertex="1">
          <mxGeometry width="160" height="60" as="geometry" />
        </mxCell>

        <!-- Entidade Fornecedor -->
        <mxCell id="8" value="Fornecedor" style="swimlane;rounded=1;whiteSpace=wrap;html=1;fillColor=#f7f7f7" parent="1" vertex="1">
          <mxGeometry x="450" y="200" width="160" height="120" as="geometry" />
        </mxCell>
        <mxCell id="9" value="categoriaProduto: String, tipoPagamento: String" style="text;strokeColor=none;fillColor=none;align=center;verticalAlign=middle;whiteSpace=wrap;html=1;fontSize=12;" parent="8" vertex="1">
          <mxGeometry width="160" height="60" as="geometry" />
        </mxCell>

        <!-- Relacionamento Pedido - Cliente -->
        <mxCell id="10" value="Pedidos --* Cliente" style="edgeStyle=orthogonalEdgeStyle;rounded=0;orthogonalLoop=1;jettySize=auto;html=1;exitX=0.5;exitY=0;exitDx=0;exitDy=0" parent="1" edge="1" source="2" target="6">
          <mxGeometry relative="1" as="geometry" />
        </mxCell>

        <!-- Relacionamento Pedido - Fornecedor -->
        <mxCell id="11" value="Pedidos --* Fornecedor" style="edgeStyle=orthogonalEdgeStyle;rounded=0;orthogonalLoop=1;jettySize=auto;html=1;exitX=0.5;exitY=0;exitDx=0;exitDy=0" parent="1" edge="1" source="2" target="8">
          <mxGeometry relative="1" as="geometry" />
        </mxCell>

        <!-- Relacionamento Empresa - Entregadores -->
        <mxCell id="12" value="Empresa --* Entregadores : 1..n" style="edgeStyle=orthogonalEdgeStyle;rounded=0;orthogonalLoop=1;jettySize=auto;html=1;exitX=0.5;exitY=0;exitDx=0;exitDy=0" parent="1" edge="1" source="2" target="12">
          <mxGeometry relative="1" as="geometry" />
        </mxCell>

        <!-- Entidade Pessoa -->
        <mxCell id="13" value="Pessoa" style="swimlane;rounded=1;whiteSpace=wrap;html=1;fillColor=#f7f7f7" parent="1" vertex="1">
          <mxGeometry x="650" y="50" width="160" height="120" as="geometry" />
        </mxCell>
        <mxCell id="14" value="nome: String, endereco: String, telefone: String, email: String" style="text;strokeColor=none;fillColor=none;align=center;verticalAlign=middle;whiteSpace=wrap;html=1;fontSize=12;" parent="13" vertex="1">
          <mxGeometry width="160" height="60" as="geometry" />
        </mxCell>

        <!-- Entidade Fisica -->
        <mxCell id="15" value="Fisica" style="swimlane;rounded=1;whiteSpace=wrap;html=1;fillColor=#f7f7f7" parent="1" vertex="1">
          <mxGeometry x="850" y="50" width="160" height="120" as="geometry" />
        </mxCell>
        <mxCell id="16" value="cpf: String, rg: String, genero: String, dataNascimento: DateTime" style="text;strokeColor=none;fillColor=none;align=center;verticalAlign=middle;whiteSpace=wrap;html=1;fontSize=12;" parent="15" vertex="1">
          <mxGeometry width="160" height="60" as="geometry" />
        </mxCell>

        <!-- Relacionamento Fisica - Pessoa -->
        <mxCell id="17" value="Fisica --|> Pessoa" style="edgeStyle=orthogonalEdgeStyle;rounded=0;orthogonalLoop=1;jettySize=auto;html=1;exitX=0.5;exitY=0;exitDx=0;exitDy=0" parent="1" edge="1" source="15" target="13">
          <mxGeometry relative="1" as="geometry" />
        </mxCell>

        <!-- Entidade Juridica -->
        <mxCell id="18" value="Juridica" style="swimlane;rounded=1;whiteSpace=wrap;html=1;fillColor=#f7f7f7" parent="1" vertex="1">
          <mxGeometry x="850" y="200" width="160" height="120" as="geometry" />
        </mxCell>
        <mxCell id="19" value="cnpj: String, inscricaoEstadual: String, razaoSocial: String" style="text;strokeColor=none;fillColor=none;align=center;verticalAlign=middle;whiteSpace=wrap;html=1;fontSize=12;" parent="18" vertex="1">
          <mxGeometry width="160" height="60" as="geometry" />
        </mxCell>

        <!-- Relacionamento Juridica - Pessoa -->
        <mxCell id="20" value="Juridica --|> Pessoa" style="edgeStyle=orthogonalEdgeStyle;rounded=0;orthogonalLoop=1;jettySize=auto;html=1;exitX=0.5;exitY=0;exitDx=0;exitDy=0" parent="1" edge="1" source="18" target="13">
          <mxGeometry relative="1" as="geometry" />
        </mxCell>
      </root>
    </mxGraphModel>
  </diagram>
</mxfile>
